<?xml version="1.0" standalone="no"?><!DOCTYPE svg PUBLIC "-//W3C//DTD SVG 1.1//EN" "http://www.w3.org/Graphics/SVG/1.1/DTD/svg11.dtd"><svg t="1517142090651" class="icon" style="" viewBox="0 0 1024 1024" version="1.1" xmlns="http://www.w3.org/2000/svg" p-id="1166" xmlns:xlink="http://www.w3.org/1999/xlink" width="32" height="32"><defs><style type="text/css"></style></defs><path d="M910.098283 962.254727 781.88709 962.254727c-10.290789 0-19.57972-6.311753-23.197255-15.918551l-93.151287-241.778602-321.228977 0L256.824563 945.852152c-3.537714 9.809413-12.90442 16.402575-23.397832 16.402575L113.900693 962.254727c-8.202135 0-15.840406-4.058432-20.585671-10.813277-4.582553-6.754844-5.628415-15.356756-2.653542-22.997784L417.358207 77.685313c3.69838-9.647731 12.946377-15.940041 23.237166-15.940041l121.336341 0c10.051325 0 19.177544 6.090718 22.996679 15.437597l348.20648 850.737888c3.175449 7.677866 2.291276 16.402575-2.373144 23.280216C926.139265 958.073498 918.38024 962.254727 910.098283 962.254727zM395.2457 563.127448l216.621308 0-76.146311-201.976084c-12.745801-33.708729-24.043564-64.805982-33.772535-93.107561-7.558449 26.492374-16.161737 52.845579-25.810886 78.997192L395.2457 563.127448z" p-id="1167" fill="#de5a49"></path></svg>